<?xml version="1.0" standalone="no"?><!DOCTYPE svg PUBLIC "-//W3C//DTD SVG 1.1//EN" "http://www.w3.org/Graphics/SVG/1.1/DTD/svg11.dtd"><svg t="1648543760829" class="icon" viewBox="0 0 1536 1024" version="1.1" xmlns="http://www.w3.org/2000/svg" p-id="2430" xmlns:xlink="http://www.w3.org/1999/xlink" width="72" height="48"><defs><style type="text/css">@font-face { font-family: feedback-iconfont; src: url("//at.alicdn.com/t/font_1031158_u69w8yhxdu.woff2?t=1630033759944") format("woff2"), url("//at.alicdn.com/t/font_1031158_u69w8yhxdu.woff?t=1630033759944") format("woff"), url("//at.alicdn.com/t/font_1031158_u69w8yhxdu.ttf?t=1630033759944") format("truetype"); }
</style></defs><path d="M1397.76 481.28l-394.24-394.24c-15.36-15.36-40.96-15.36-61.44 0-15.36 15.36-15.36 46.08 0 61.44l363.52 363.52-363.52 363.52c-15.36 15.36-15.36 40.96 0 61.44 15.36 15.36 40.96 15.36 61.44 0l394.24-394.24c10.24-10.24 15.36-20.48 10.24-30.72 5.12-10.24 0-25.6-10.24-30.72z m-384 30.72c0-10.24-5.12-25.6-10.24-30.72l-394.24-394.24c-15.36-15.36-40.96-15.36-61.44 0-15.36 15.36-15.36 46.08 0 61.44l363.52 363.52-363.52 363.52c-15.36 15.36-15.36 40.96 0 61.44 15.36 15.36 46.08 15.36 61.44 0l394.24-394.24c5.12-5.12 10.24-20.48 10.24-30.72z m0 0" p-id="2431"></path><path d="M609.28 512c0-10.24-5.12-25.6-10.24-30.72L204.8 87.04c-15.36-15.36-40.96-15.36-61.44 0-15.36 15.36-15.36 40.96 0 61.44L512 512l-363.52 363.52c-15.36 15.36-15.36 40.96 0 61.44 15.36 15.36 46.08 15.36 61.44 0l394.24-394.24c0-5.12 5.12-20.48 5.12-30.72z" p-id="2432"></path></svg>